<svg id="Layer_1" data-name="Layer 1" xmlns="http://www.w3.org/2000/svg" viewBox="0 0 254 234"><defs><style>.cls-1{fill:#fff;}</style></defs><path class="cls-1" d="M80.36,132.93c1.06,5.84,1.68,10.95,3.1,15.83.35,1.18,3.32,2.26,5.09,2.26,33.16.14,66.32.1,99.48.1,2.83,0,5.67-.11,8.5,0a28,28,0,0,1,5.89.93c3.93,1.11,6.09,4.32,5.41,7.9a14.25,14.25,0,0,1-5.1,7.67c-1.68,1.32-4.76,1.12-7.22,1.12q-57.75.09-115.48,0c-8.65,0-11-1.72-12.57-10.12q-10.65-55.36-21-110.8c-.74-4-2.13-5.26-6.08-5.12a99.53,99.53,0,0,1-15.92-.55c-5-.63-7.65-4.06-7.4-8.5.25-4.6,2.88-7.92,7.35-8.08A261,261,0,0,1,54.27,26c2.38.18,5.82,3.75,6.41,6.31.94,4.08,2.56,4.86,6.32,4.86q73.23-.16,146.47-.08c1.5,0,3-.06,4.5,0,10.33.61,15.23,7.39,12.49,17.42-3.08,11.22-6.3,22.41-9.43,33.61q-4.64,16.56-9.24,33.13c-2.28,8.22-5,10.55-13.55,11.49a50,50,0,0,1-5.48.18H80.36ZM65.92,55.14a16.08,16.08,0,0,0,0,2.72c3.48,18.11,7,36.2,10.47,54.33.55,2.89,2.27,3.1,4.64,3.1q55.21-.08,110.41,0c3.16,0,4.44-1.23,5.15-4,1.21-4.84,2.65-9.61,4-14.42,3.84-13.73,7.68-27.47,11.66-41.73Z"/><path class="cls-1" d="M65.12,198.79a17.62,17.62,0,0,1,17.54-17.42c9.37-.1,17.38,8,17.37,17.6a17.46,17.46,0,1,1-34.91-.18Z"/><path class="cls-1" d="M208.11,199.3a17.54,17.54,0,0,1-17.69,17.28c-9.9,0-17.38-7.91-17.22-18.13A17.5,17.5,0,0,1,191,181.37,17.79,17.79,0,0,1,208.11,199.3Z"/></svg>